<svg version="1.1" id="Layer_1" xmlns="http://www.w3.org/2000/svg" xmlns:xlink="http://www.w3.org/1999/xlink" x="0px" y="0px" viewBox="0 0 100 100" fill="#2B0548" style="enable-background:new 0 0 100 100;" xml:space="preserve">
<path d="M93.1,42L85,41.4c-0.9-3.6-2.3-7-4.2-10.1l5.4-6.2c0.7-0.8,0.6-2-0.1-2.7l-8.5-8.5c-0.7-0.7-1.9-0.8-2.7-0.1l-6.2,5.4
	c-3.1-1.9-6.5-3.3-10.1-4.2L58,6.9c-0.1-1-0.9-1.9-2-1.9H44c-1.1,0-1.9,0.8-2,1.9L41.4,15c-3.6,0.9-7,2.3-10.1,4.2l-6.2-5.4
	c-0.8-0.7-2-0.6-2.7,0.1l-8.5,8.5c-0.7,0.7-0.8,1.9-0.1,2.7l5.4,6.2c-1.9,3.1-3.3,6.5-4.2,10.1L6.9,42c-1,0.1-1.9,0.9-1.9,2v12
	c0,1.1,0.8,1.9,1.9,2l8.2,0.6c0.9,3.6,2.3,7,4.2,10.1l-5.4,6.2c-0.7,0.8-0.6,2,0.1,2.7l8.5,8.5c0.7,0.7,1.9,0.8,2.7,0.1l6.2-5.4
	c3.1,1.9,6.5,3.3,10.1,4.2l0.6,8.2c0.1,1,0.9,1.9,2,1.9h12c1.1,0,1.9-0.8,2-1.9l0.6-8.2c3.6-0.9,7-2.3,10.1-4.2l6.2,5.4
	c0.8,0.7,2,0.7,2.7-0.1l8.5-8.5c0.7-0.7,0.8-1.9,0.1-2.7l-5.4-6.2c1.9-3.1,3.3-6.5,4.2-10.1l8.2-0.6c1-0.1,1.9-0.9,1.9-2V44
	C95,42.9,94.2,42.1,93.1,42z M91,54.1l-7.8,0.5c-0.9,0.1-1.6,0.7-1.8,1.6c-0.8,4.1-2.4,8-4.7,11.5c-0.5,0.8-0.4,1.7,0.2,2.4l5.1,5.9
	l-5.8,5.8l-5.9-5.1c-0.7-0.6-1.7-0.7-2.4-0.2c-3.5,2.3-7.4,3.9-11.5,4.7c-0.9,0.2-1.5,0.9-1.6,1.8L54.1,91h-8.3l-0.5-7.8
	c-0.1-0.9-0.7-1.6-1.6-1.8c-4.1-0.8-8-2.4-11.5-4.7c-0.7-0.5-1.7-0.4-2.4,0.2l-5.9,5.1l-5.8-5.8l5.1-5.9c0.6-0.7,0.7-1.7,0.2-2.4
	c-2.3-3.5-3.9-7.4-4.8-11.5c-0.2-0.9-0.9-1.5-1.8-1.6L9,54.1v-8.3l7.8-0.5c0.9-0.1,1.6-0.7,1.8-1.6c0.8-4.1,2.4-8,4.8-11.5
	c0.5-0.8,0.4-1.7-0.2-2.4l-5.1-5.9l5.8-5.8l5.9,5.1c0.7,0.6,1.7,0.7,2.4,0.2c3.5-2.3,7.4-3.9,11.5-4.8c0.9-0.2,1.5-0.9,1.6-1.8
	L45.9,9h8.3l0.5,7.8c0.1,0.9,0.7,1.6,1.6,1.8c4.1,0.8,8,2.4,11.5,4.8c0.8,0.5,1.7,0.4,2.4-0.2l5.9-5.1l5.8,5.8l-5.1,5.9
	c-0.6,0.7-0.7,1.7-0.2,2.4c2.3,3.5,3.9,7.4,4.7,11.5c0.2,0.9,0.9,1.5,1.8,1.6l7.8,0.5V54.1z M50,24c-14.3,0-26,11.7-26,26
	c0,14.3,11.7,26,26,26c14.3,0,26-11.7,26-26C76,35.7,64.3,24,50,24z M50,72c-12.1,0-22-9.9-22-22s9.9-22,22-22s22,9.9,22,22
	S62.1,72,50,72z" id="id_103"></path>
</svg>