<svg width="64" height="64" viewBox="0 0 64 64" fill="none" xmlns="http://www.w3.org/2000/svg">
<path d="M56.0602 53.9397L40.5102 38.3897C43.6593 34.693 45.2558 29.9211 44.9653 25.0736C44.6747 20.2261 42.5197 15.6791 38.9515 12.385C35.3834 9.0909 30.679 7.30528 25.8238 7.40218C20.9686 7.49909 16.3392 9.47099 12.9053 12.9048C9.47147 16.3387 7.49957 20.9681 7.40267 25.8233C7.30577 30.6785 9.09138 35.3829 12.3855 38.951C15.6796 42.5192 20.2266 44.6742 25.0741 44.9648C29.9216 45.2553 34.6935 43.6588 38.3902 40.5097L53.9402 56.0597C54.2215 56.3406 54.6027 56.4984 55.0002 56.4984C55.3977 56.4984 55.779 56.3406 56.0602 56.0597C56.2005 55.9211 56.3119 55.7561 56.3879 55.5741C56.4639 55.3922 56.5031 55.1969 56.5031 54.9997C56.5031 54.8025 56.4639 54.6073 56.3879 54.4253C56.3119 54.2434 56.2005 54.0783 56.0602 53.9397V53.9397ZM10.5002 26.2497C10.5002 23.1347 11.4239 20.0896 13.1546 17.4995C14.8852 14.9094 17.345 12.8907 20.2229 11.6986C23.1009 10.5065 26.2677 10.1946 29.3229 10.8024C32.3781 11.4101 35.1845 12.9101 37.3871 15.1128C39.5898 17.3155 41.0899 20.1218 41.6976 23.177C42.3053 26.2322 41.9934 29.399 40.8013 32.277C39.6092 35.1549 37.5905 37.6147 35.0004 39.3454C32.4104 41.076 29.3653 41.9997 26.2502 41.9997C22.0747 41.9944 18.0717 40.3334 15.1191 37.3808C12.1666 34.4283 10.5055 30.4253 10.5002 26.2497V26.2497Z" fill="#ababab" id="id_101"></path>
</svg>