<?xml version="1.0" encoding="UTF-8" standalone="no"?> <svg xmlns="http://www.w3.org/2000/svg" viewBox="0 0 32 32"><title>School</title><g id="School"><path d="M27,14H24V10.489l.386.3A.99.99,0,0,0,25,11a1,1,0,0,0,.614-1.789l-9-7a1,1,0,0,0-1.228,0l-9,7a1,1,0,1,0,1.228,1.578l.386-.3V14H5a3,3,0,0,0-3,3V27a3,3,0,0,0,3,3H27a3,3,0,0,0,3-3V17A3,3,0,0,0,27,14ZM5,28a1,1,0,0,1-1-1V17a1,1,0,0,1,1-1H8V28Zm9,0V25h4v3Zm6,0V24a1,1,0,0,0-1-1H13a1,1,0,0,0-1,1v4H10V8.933l6-4.666,6,4.666V28Zm8-1a1,1,0,0,1-1,1H24V16h3a1,1,0,0,1,1,1Z"/><path d="M14,15H13a1,1,0,0,0,0,2h1a1,1,0,0,0,0-2Z"/><path d="M19,15H18a1,1,0,0,0,0,2h1a1,1,0,0,0,0-2Z"/><path d="M14,19H13a1,1,0,0,0,0,2h1a1,1,0,0,0,0-2Z"/><path d="M19,19H18a1,1,0,0,0,0,2h1a1,1,0,0,0,0-2Z"/><path d="M19,10a3,3,0,1,0-3,3A3,3,0,0,0,19,10Zm-3,1a1,1,0,1,1,1-1A1,1,0,0,1,16,11Z"/></g></svg>