<?xml version="1.0" encoding="UTF-8" standalone="no"?> <svg xmlns="http://www.w3.org/2000/svg" viewBox="0 0 48 64"><defs><style>.cls-1{fill:#35353d;}</style></defs><title>Asset 27</title><g id="Layer_2" data-name="Layer 2"><g id="Layer_1-2" data-name="Layer 1"><path class="cls-1" d="M32,32H16A16,16,0,0,0,0,48V61.33a2.67,2.67,0,1,0,5.33,0V48A10.69,10.69,0,0,1,16,37.33H32A10.69,10.69,0,0,1,42.67,48V61.33a2.67,2.67,0,1,0,5.33,0V48A16,16,0,0,0,32,32Z"/><path class="cls-1" d="M24,26.67A13.34,13.34,0,1,0,10.67,13.33,13.35,13.35,0,0,0,24,26.67ZM24,5.33a8,8,0,1,1-8,8A8,8,0,0,1,24,5.33Z"/></g></g></svg>