<svg xmlns="http://www.w3.org/2000/svg" viewBox="0 0 500 500"><g id="freepik--background-simple--inject-2"><path d="M400.7,431.59c24.71-22.22,43.07-52.57,56.93-82,20.59-43.72,31.55-98.27,2.81-140.78-16.58-24.52-42.48-40-71.23-45.83-27.66-5.6-54.56-4.39-78.35-21.92-24.06-17.75-45-39.89-66.54-60.5-55.38-53-156-37.8-202.73,33.56s-34,164.06,11,207.06C93,359.81,149.38,367.36,194,397.56c22.11,15,37.57,37.07,61,50.24,27.25,15.31,60.66,21.59,91.36,13.77C367.26,456.24,385.22,445.51,400.7,431.59Z" style="fill:#7A89FD"></path><path d="M400.7,431.59c24.71-22.22,43.07-52.57,56.93-82,20.59-43.72,31.55-98.27,2.81-140.78-16.58-24.52-42.48-40-71.23-45.83-27.66-5.6-54.56-4.39-78.35-21.92-24.06-17.75-45-39.89-66.54-60.5-55.38-53-156-37.8-202.73,33.56s-34,164.06,11,207.06C93,359.81,149.38,367.36,194,397.56c22.11,15,37.57,37.07,61,50.24,27.25,15.31,60.66,21.59,91.36,13.77C367.26,456.24,385.22,445.51,400.7,431.59Z" style="fill:#fff;opacity:0.7000000000000001"></path></g></svg>